<svg id="Capa_1" enable-background="new 0 0 512 512" height="512" viewBox="0 0 512 512" width="512" xmlns="http://www.w3.org/2000/svg"><g><g><path d="m257.916 7.401c-20.353 0-37.005 16.652-37.005 37.005v2.361l2.839 3h68.333l2.838-3v-2.361c0-20.353-16.652-37.005-37.005-37.005z" fill="#f07281"/><path d="m332.557 365.618-9.689-176.224-1.954-35.56-.248-.04h.247v-61.734h-25.992v-45.293h-74.01v45.293h-24.627v61.734h.248l-.248.04-2.15 35.56-10.657 176.224-2.22 36.701 9.243 5h135.25l8.824-5z" fill="#eaf6ff"/><path d="m194.134 189.394-10.657 176.224h60.163l10.657-176.224z" fill="#d8ecfe"/><path d="m320.914 153.834h-124.63l-2.15 35.56h128.734z" fill="#f07281"/><path d="m322.236 177.899-1.323-24.065h-64.466-18.78-41.383l-1.455 24.065-.695 11.495h41.383 18.78l.011-.188c.384-6.352 5.647-11.306 12.011-11.306h55.917z" fill="#eb5569"/><path d="m183.477 365.618-2.22 36.701h153.317l-2.017-36.701z" fill="#f07281"/><path d="m183.477 365.618-2.22 36.701h60.164l2.219-36.701z" fill="#eb5569"/><path d="m269.041 56v-9.233h-48.131v21.266 24.065h48.131 25.88v-24.065h-13.847c-6.645 0-12.033-5.388-12.033-12.033z" fill="#d8ecfe"/><path d="m281.981 16.366c-6.483-5.576-14.895-8.965-24.065-8.965-20.353 0-37.005 16.652-37.005 37.005v2.361h48.131v-2.361c-.001-11.182 5.033-21.24 12.939-28.04z" fill="#eb5569"/><path d="m353.816 402.32h-195.349c-2.976-.001-5.667.736-8.004 2.021-5.068 2.8-8.524 8.197-8.524 14.371v45.383l13.561 5h205l9.574-5v-45.383c0-9.016-7.377-16.393-16.258-16.392z" fill="#3c87d0"/><path d="m505 504.599h-498c-3.866 0-7-3.134-7-7v-26.502c0-3.866 3.134-7 7-7h498c3.866 0 7 3.134 7 7v26.502c0 3.866-3.134 7-7 7z" fill="#8ac9fe"/><path d="m0 471.097v26.502c0 3.866 3.134 7 7 7h43v-40.502h-43c-3.866 0-7 3.134-7 7z" fill="#60b7ff"/><path d="m210.626 404.341c2.336-1.284 5.027-2.022 8.004-2.021h-60.163c-2.976-.001-5.667.737-8.004 2.021-5.068 2.8-8.524 8.196-8.524 14.371v45.383h60.163v-45.383c0-6.175 3.456-11.571 8.524-14.371z" fill="#406cbc"/></g><g fill="#3c87d0"><path d="m257.903 225.2c-4.142 0-7.5 3.357-7.5 7.5v22.457c0 4.143 3.358 7.5 7.5 7.5s7.5-3.357 7.5-7.5v-22.457c0-4.143-3.358-7.5-7.5-7.5z"/><path d="m257.903 292.788c-4.142 0-7.5 3.357-7.5 7.5v22.456c0 4.143 3.358 7.5 7.5 7.5s7.5-3.357 7.5-7.5v-22.456c0-4.142-3.358-7.5-7.5-7.5z"/></g><g><g fill="#8ac9fe"><path d="m204.8 54.334h106.206c4.142 0 7.5-3.357 7.5-7.5s-3.358-7.5-7.5-7.5h-106.206c-4.142 0-7.5 3.357-7.5 7.5s3.358 7.5 7.5 7.5z"/><path d="m322.855 181.961h-128.734c-4.142 0-7.5 3.357-7.5 7.5s3.358 7.5 7.5 7.5h128.734c4.142 0 7.5-3.357 7.5-7.5s-3.357-7.5-7.5-7.5z"/><path d="m338.782 146.359h-10.382v-46.694h10.382c4.142 0 7.5-3.357 7.5-7.5s-3.358-7.5-7.5-7.5h-161.759c-4.142 0-7.5 3.357-7.5 7.5s3.358 7.5 7.5 7.5h11.751v46.693h-11.751c-4.142 0-7.5 3.357-7.5 7.5s3.358 7.5 7.5 7.5h161.759c4.142 0 7.5-3.357 7.5-7.5s-3.358-7.499-7.5-7.499zm-25.382 0h-27.226v-46.694h27.226zm-42.226 0h-26.543v-46.694h26.543zm-67.4-46.694h25.857v46.693h-25.857z"/></g></g></g></svg>